<?xml version="1.0" encoding="UTF-8"?>
<svg width="32px" height="32px" viewBox="0 0 32 32" version="1.1" xmlns="http://www.w3.org/2000/svg">
    <circle cx="16" cy="16" r="14" fill="#4299E1" stroke="#2B6CB0" stroke-width="2"/>
    <path d="M16,2 C8.268,2 2,8.268 2,16 C2,23.732 8.268,30 16,30 C23.732,30 30,23.732 30,16 C30,8.268 23.732,2 16,2 Z M16,28 C9.373,28 4,22.627 4,16 C4,9.373 9.373,4 16,4 C22.627,4 28,9.373 28,16 C28,22.627 22.627,28 16,28 Z" fill="#2B6CB0"/>
    <path d="M16,2 C8.268,2 2,8.268 2,16 L30,16 C30,8.268 23.732,2 16,2 Z" fill="#63B3ED" fill-opacity="0.3"/>
    <path d="M8,16 L24,16 M16,8 L16,24" stroke="#2B6CB0" stroke-width="2" stroke-linecap="round"/>
</svg> 